<svg width="26" height="21" viewBox="0 0 26 21" fill="none" xmlns="http://www.w3.org/2000/svg">
    <path d="M0.75 7.41667C0.75 5.94391 1.94391 4.75 3.41667 4.75H4.97223C6.04876 4.75 7.01971 4.10269 7.43376 3.10897L7.73291 2.39103C8.14696 1.39731 9.11791 0.75 10.1944 0.75H15.3056C16.3821 0.75 17.3531 1.39731 17.7671 2.39103L18.0663 3.10897C18.4803 4.10269 19.4512 4.75 20.5277 4.75H22.0833C23.5561 4.75 24.75 5.94391 24.75 7.41667V16.75C24.75 18.2228 23.5561 19.4167 22.0833 19.4167H3.41667C1.94391 19.4167 0.75 18.2228 0.75 16.75V7.41667Z" stroke="#C1FF11" stroke-width="1.5" stroke-linecap="round" stroke-linejoin="round"/>
    <path d="M16.75 11.4141C16.75 13.6233 14.9592 15.4141 12.75 15.4141C10.5408 15.4141 8.75 13.6233 8.75 11.4141C8.75 9.20486 10.5408 7.41406 12.75 7.41406C14.9592 7.41406 16.75 9.20486 16.75 11.4141Z" stroke="#C1FF11" stroke-width="1.5" stroke-linecap="round" stroke-linejoin="round"/>
</svg>
