<svg width="21" height="21" viewBox="0 0 21 21" fill="none" xmlns="http://www.w3.org/2000/svg">
    <path d="M7.49554 7.57404L13.2906 3.74782C13.6344 3.5208 14.0899 3.78375 14.0652 4.19503L13.6491 11.1268C13.6114 11.7552 13.28 12.3291 12.7547 12.676L6.95964 16.5022C6.6158 16.7292 6.16036 16.4663 6.18504 16.055L6.60111 9.12323C6.63883 8.49483 6.9702 7.9209 7.49554 7.57404Z" stroke="#001ADC" stroke-width="1.25" stroke-linecap="round"/>
    <path d="M19.625 10.125C19.625 15.3717 15.3717 19.625 10.125 19.625C4.87829 19.625 0.625 15.3717 0.625 10.125C0.625 4.87829 4.87829 0.625 10.125 0.625C15.3717 0.625 19.625 4.87829 19.625 10.125Z" stroke="#001ADC" stroke-width="1.25" stroke-linecap="round"/>
    <path d="M11.125 10.125C11.125 10.6773 10.6773 11.125 10.125 11.125C9.5727 11.125 9.125 10.6773 9.125 10.125C9.125 9.5727 9.5727 9.125 10.125 9.125C10.6773 9.125 11.125 9.5727 11.125 10.125Z" stroke="#001ADC" stroke-width="1.25" stroke-linecap="round"/>
</svg>
