<svg width="20" height="16" viewBox="0 0 20 16" fill="none" xmlns="http://www.w3.org/2000/svg">
    <path d="M10.0694 10.688C10.9319 10.9101 11.5693 11.6931 11.5693 12.625C11.5693 13.7296 10.6739 14.625 9.56934 14.625C8.63744 14.625 7.85434 13.9876 7.63234 13.125M13.6985 6.9722C14.1544 7.3058 14.5684 7.6931 14.9312 8.125M4.20704 8.125C5.184 6.9621 6.53229 6.1216 8.06934 5.786M0.625 4.625C2.82229 2.17 6.01543 0.625 9.56944 0.625C10.6053 0.625 11.6105 0.75625 12.5693 1.00303M17.3207 3.46401C17.7447 3.82311 18.1434 4.21113 18.5138 4.625M2.56934 14.625L16.5693 0.625" stroke="#FF6438" stroke-width="1.25" stroke-linecap="round"/>
</svg>
