<svg width="21" height="17" viewBox="0 0 21 17" fill="none" xmlns="http://www.w3.org/2000/svg">
    <path d="M19.625 3.625C19.625 5.28185 15.3717 6.625 10.125 6.625C4.87829 6.625 0.625 5.28185 0.625 3.625M19.625 3.625C19.625 1.96815 15.3717 0.625 10.125 0.625C4.87829 0.625 0.625 1.96815 0.625 3.625M19.625 3.625V6.625M0.625 3.625V6.625M19.625 6.625C19.625 8.2819 15.3717 9.625 10.125 9.625C4.87829 9.625 0.625 8.2819 0.625 6.625M19.625 6.625V9.625M0.625 6.625V9.625M19.625 9.625C19.625 11.2819 15.3717 12.625 10.125 12.625C4.87829 12.625 0.625 11.2819 0.625 9.625M19.625 9.625V12.625C19.625 14.2819 15.3717 15.625 10.125 15.625C4.87829 15.625 0.625 14.2819 0.625 12.625V9.625" stroke="#001ADC" stroke-width="1.25" stroke-linecap="round"/>
</svg>
