<svg width="26" height="26" viewBox="0 0 26 26" fill="none" xmlns="http://www.w3.org/2000/svg">
    <path d="M6.49954 10.6641V4.0625C6.49954 3.84701 6.41393 3.64035 6.26156 3.48798C6.10919 3.3356 5.90252 3.25 5.68704 3.25C5.47155 3.25 5.26489 3.3356 5.11251 3.48798C4.96014 3.64035 4.87454 3.84701 4.87454 4.0625V10.6641C4.17545 10.8431 3.55582 11.2496 3.11333 11.8197C2.67084 12.3897 2.43066 13.0909 2.43066 13.8125C2.43066 14.5341 2.67084 15.2353 3.11333 15.8053C3.55582 16.3754 4.17545 16.7819 4.87454 16.9609V21.9375C4.87454 22.153 4.96014 22.3597 5.11251 22.512C5.26489 22.6644 5.47155 22.75 5.68704 22.75C5.90252 22.75 6.10919 22.6644 6.26156 22.512C6.41393 22.3597 6.49954 22.153 6.49954 21.9375V16.9609C7.19862 16.7819 7.81825 16.3754 8.26074 15.8053C8.70323 15.2353 8.94341 14.5341 8.94341 13.8125C8.94341 13.0909 8.70323 12.3897 8.26074 11.8197C7.81825 11.2496 7.19862 10.8431 6.49954 10.6641ZM5.68704 15.4375C5.36564 15.4375 5.05147 15.3422 4.78424 15.1636C4.51701 14.9851 4.30872 14.7313 4.18573 14.4344C4.06274 14.1374 4.03056 13.8107 4.09326 13.4955C4.15596 13.1803 4.31073 12.8907 4.53799 12.6635C4.76525 12.4362 5.0548 12.2814 5.37001 12.2187C5.68523 12.156 6.01197 12.1882 6.3089 12.3112C6.60583 12.4342 6.85962 12.6425 7.03817 12.9097C7.21673 13.1769 7.31204 13.4911 7.31204 13.8125C7.31204 14.2435 7.14083 14.6568 6.83608 14.9615C6.53134 15.2663 6.11801 15.4375 5.68704 15.4375ZM13.812 5.78906V4.0625C13.812 3.84701 13.7264 3.64035 13.5741 3.48798C13.4217 3.3356 13.215 3.25 12.9995 3.25C12.784 3.25 12.5774 3.3356 12.425 3.48798C12.2726 3.64035 12.187 3.84701 12.187 4.0625V5.78906C11.4879 5.96806 10.8683 6.37463 10.4258 6.94469C9.98334 7.51475 9.74316 8.21586 9.74316 8.9375C9.74316 9.65914 9.98334 10.3603 10.4258 10.9303C10.8683 11.5004 11.4879 11.9069 12.187 12.0859V21.9375C12.187 22.153 12.2726 22.3597 12.425 22.512C12.5774 22.6644 12.784 22.75 12.9995 22.75C13.215 22.75 13.4217 22.6644 13.5741 22.512C13.7264 22.3597 13.812 22.153 13.812 21.9375V12.0859C14.5111 11.9069 15.1308 11.5004 15.5732 10.9303C16.0157 10.3603 16.2559 9.65914 16.2559 8.9375C16.2559 8.21586 16.0157 7.51475 15.5732 6.94469C15.1308 6.37463 14.5111 5.96806 13.812 5.78906ZM12.9995 10.5625C12.6781 10.5625 12.364 10.4672 12.0967 10.2886C11.8295 10.1101 11.6212 9.85629 11.4982 9.55936C11.3752 9.26243 11.3431 8.9357 11.4058 8.62048C11.4685 8.30526 11.6232 8.01571 11.8505 7.78845C12.0777 7.56119 12.3673 7.40642 12.6825 7.34372C12.9977 7.28102 13.3245 7.3132 13.6214 7.4362C13.9183 7.55919 14.1721 7.76747 14.3507 8.0347C14.5292 8.30193 14.6245 8.61611 14.6245 8.9375C14.6245 9.36848 14.4533 9.7818 14.1486 10.0865C13.8438 10.3913 13.4305 10.5625 12.9995 10.5625ZM23.562 17.0625C23.5614 16.342 23.3217 15.642 22.8806 15.0723C22.4395 14.5025 21.8219 14.0952 21.1245 13.9141V4.0625C21.1245 3.84701 21.0389 3.64035 20.8866 3.48798C20.7342 3.3356 20.5275 3.25 20.312 3.25C20.0965 3.25 19.8899 3.3356 19.7375 3.48798C19.5851 3.64035 19.4995 3.84701 19.4995 4.0625V13.9141C18.8004 14.0931 18.1808 14.4996 17.7383 15.0697C17.2958 15.6397 17.0557 16.3409 17.0557 17.0625C17.0557 17.7841 17.2958 18.4853 17.7383 19.0553C18.1808 19.6254 18.8004 20.0319 19.4995 20.2109V21.9375C19.4995 22.153 19.5851 22.3597 19.7375 22.512C19.8899 22.6644 20.0965 22.75 20.312 22.75C20.5275 22.75 20.7342 22.6644 20.8866 22.512C21.0389 22.3597 21.1245 22.153 21.1245 21.9375V20.2109C21.8219 20.0298 22.4395 19.6225 22.8806 19.0527C23.3217 18.483 23.5614 17.783 23.562 17.0625ZM20.312 18.6875C19.9906 18.6875 19.6765 18.5922 19.4092 18.4136C19.142 18.2351 18.9337 17.9813 18.8107 17.6844C18.6877 17.3874 18.6556 17.0607 18.7183 16.7455C18.781 16.4303 18.9357 16.1407 19.163 15.9135C19.3902 15.6862 19.6798 15.5314 19.995 15.4687C20.3102 15.406 20.637 15.4382 20.9339 15.5612C21.2308 15.6842 21.4846 15.8925 21.6632 16.1597C21.8417 16.4269 21.937 16.7411 21.937 17.0625C21.937 17.4935 21.7658 17.9068 21.4611 18.2115C21.1563 18.5163 20.743 18.6875 20.312 18.6875Z" fill="#001ADC"/>
</svg>
