<svg width="21" height="18" viewBox="0 0 21 18" fill="none" xmlns="http://www.w3.org/2000/svg">
    <path d="M9.46083 2.43102C9.7649 2.8014 10.5857 2.80146 10.8898 2.4311C11.5354 1.64482 12.6651 0.75 14.4629 0.75C16.0607 0.75 17.3416 1.50845 18.2247 2.58119C18.4583 2.93658 18.3591 3.91048 17.6139 4.06384C15.7174 4.45413 14.2915 6.13299 14.2915 8.14492C14.2915 8.56138 14.444 9.01992 14.6665 9.46721C14.9609 10.0594 14.2014 11.2188 13.5504 11.3356C11.8504 11.6408 10.5082 12.9771 10.1944 14.6741C10.0302 15.5621 9.10302 16.1373 8.3924 15.5801C5.64018 13.4225 0.75 9.18638 0.75 6.32559C0.75 3.8066 2.68142 0.75 5.88751 0.75C7.68572 0.75 8.81531 1.64475 9.46083 2.43102Z" stroke="#FF3800" stroke-width="1.5" stroke-linecap="round" stroke-linejoin="round"/>
    <path d="M19.4998 8.14714C19.4998 8.72245 19.0335 9.1888 18.4582 9.1888C17.8829 9.1888 17.4165 8.72245 17.4165 8.14714C17.4165 7.57182 17.8829 7.10547 18.4582 7.10547C19.0335 7.10547 19.4998 7.57182 19.4998 8.14714Z" stroke="#FF3800" stroke-width="1.5" stroke-linecap="round" stroke-linejoin="round"/>
    <path d="M15.3333 15.4362C15.3333 16.0115 14.867 16.4779 14.2917 16.4779C13.7164 16.4779 13.25 16.0115 13.25 15.4362C13.25 14.8609 13.7164 14.3945 14.2917 14.3945C14.867 14.3945 15.3333 14.8609 15.3333 15.4362Z" stroke="#FF3800" stroke-width="1.5" stroke-linecap="round" stroke-linejoin="round"/>
</svg>
