<svg width="16" height="18" viewBox="0 0 16 18" fill="none" xmlns="http://www.w3.org/2000/svg">
    <path d="M14.625 14.9065V6.73491C14.625 6.20448 14.4044 5.70796 13.994 5.37181C12.9158 4.48845 10.7218 2.73271 8.9759 1.17214C8.1967 0.475665 7.0123 0.431665 6.2188 1.11179L1.32342 5.30785C0.88013 5.68781 0.625 6.2425 0.625 6.82635V14.9065C0.625 16.0111 1.52043 16.9065 2.625 16.9065H3.125C4.22957 16.9065 5.125 16.0111 5.125 14.9065V12.9065C5.125 11.8019 6.0204 10.9065 7.125 10.9065H8.125C9.2296 10.9065 10.125 11.8019 10.125 12.9065V14.9065C10.125 16.0111 11.0204 16.9065 12.125 16.9065H12.625C13.7296 16.9065 14.625 16.0111 14.625 14.9065Z" stroke="#001ADC" stroke-width="1.25" stroke-linecap="round"/>
</svg>
