<svg width="24" height="24" viewBox="0 0 24 24" fill="none" xmlns="http://www.w3.org/2000/svg">
    <g clip-path="url(#clip0_1330_2950)">
        <path d="M23.25 12.0039H7.5" stroke="#FF6438" stroke-width="1.5" stroke-linecap="round" stroke-linejoin="round"/>
        <path d="M11.25 15.7539L7.5 12.0039L11.25 8.25391" stroke="#FF6438" stroke-width="1.5" stroke-linecap="round" stroke-linejoin="round"/>
        <path d="M15.75 16.5V21C15.7671 21.3796 15.6333 21.7505 15.3776 22.0316C15.122 22.3127 14.7655 22.4811 14.386 22.5H2.11304C1.73375 22.4808 1.37746 22.3123 1.12206 22.0312C0.86666 21.7501 0.732909 21.3794 0.750044 21V3C0.732643 2.62054 0.866301 2.24964 1.12176 1.96851C1.37721 1.68737 1.73365 1.51891 2.11304 1.5H14.386C14.7655 1.51891 15.122 1.68734 15.3776 1.96845C15.6333 2.24955 15.7671 2.62044 15.75 3V7.5" stroke="#FF6438" stroke-width="1.5" stroke-linecap="round" stroke-linejoin="round"/>
    </g>
    <defs>
        <clipPath id="clip0_1330_2950">
            <rect width="24" height="24" fill="white"/>
        </clipPath>
    </defs>
</svg>
