<svg width="23" height="22" viewBox="0 0 23 22" fill="none" xmlns="http://www.w3.org/2000/svg">
    <path d="M8.83929 21.0525H2.26786C1.83214 21.0525 1.41428 20.8869 1.10618 20.5922C0.798086 20.2975 0.625 19.8978 0.625 19.481V3.76674C0.625 3.34997 0.798086 2.95027 1.10618 2.65557C1.41428 2.36087 1.83214 2.19531 2.26786 2.19531H4.73214" stroke="#FF6438" stroke-width="1.25" stroke-linecap="round" stroke-linejoin="round"/>
    <path d="M12.9463 2.19531H15.4106C15.8463 2.19531 16.2642 2.36087 16.5723 2.65557C16.8803 2.95027 17.0534 3.34997 17.0534 3.76674V6.9096" stroke="#FF6438" stroke-width="1.25" stroke-linecap="round" stroke-linejoin="round"/>
    <path d="M11.3034 0.625H6.37479C5.46747 0.625 4.73193 1.32855 4.73193 2.19643V2.98214C4.73193 3.85002 5.46747 4.55357 6.37479 4.55357H11.3034C12.2107 4.55357 12.9462 3.85002 12.9462 2.98214V2.19643C12.9462 1.32855 12.2107 0.625 11.3034 0.625Z" stroke="#FF6438" stroke-width="1.25" stroke-linecap="round" stroke-linejoin="round"/>
    <path d="M16.643 21.0541C19.5918 21.0541 21.9823 18.7676 21.9823 15.947C21.9823 13.1264 19.5918 10.8398 16.643 10.8398C13.6942 10.8398 11.3037 13.1264 11.3037 15.947C11.3037 18.7676 13.6942 21.0541 16.643 21.0541Z" stroke="#FF6438" stroke-width="1.25" stroke-linecap="round" stroke-linejoin="round"/>
    <path d="M12.8643 19.5606L20.4214 12.332" stroke="#FF6438" stroke-width="1.25" stroke-linecap="round" stroke-linejoin="round"/>
</svg>
