<svg width="16" height="21" viewBox="0 0 16 21" fill="none" xmlns="http://www.w3.org/2000/svg">
    <path d="M7.69912 2.125C5.19416 2.125 3.16353 4.19138 3.16353 6.74038C3.16353 7.70089 3.34376 8.47717 2.81136 10.2019C2.61534 10.8369 1.81856 12.1256 0.977812 13.3831C0.065622 14.7475 1.02076 16.625 2.66197 16.625C6.02002 16.625 9.37812 16.625 12.7362 16.625C14.3774 16.625 15.3325 14.7475 14.4203 13.3831C13.5796 12.1256 12.7828 10.8369 12.5868 10.2019C12.0544 8.47717 12.2346 7.70089 12.2346 6.74038C12.2346 4.19138 10.204 2.125 7.69912 2.125ZM7.69912 2.125V0.625M10.6991 16.625V17.125C10.6991 19.1132 9.35592 20.125 7.69912 20.125C6.04222 20.125 4.69907 19.1132 4.69907 17.125V16.625" stroke="#001ADC" stroke-width="1.25" stroke-linecap="round"/>
</svg>
