<svg width="19" height="14" viewBox="0 0 19 14" fill="none" xmlns="http://www.w3.org/2000/svg">
    <path d="M17.9908 5.8932C18.3361 6.4196 18.3361 7.0804 17.9908 7.6068C16.9032 9.2646 14.0729 12.75 9.4999 12.75C4.9269 12.75 2.0966 9.2646 1.00898 7.6068C0.663673 7.0804 0.663673 6.4196 1.00898 5.8932C2.0966 4.23535 4.9269 0.75 9.4999 0.75C14.0729 0.75 16.9032 4.23535 17.9908 5.8932Z" stroke="#001ADC" stroke-width="1.5" stroke-linecap="round" stroke-linejoin="round"/>
    <path d="M12.5 6.75C12.5 8.4069 11.1568 9.75 9.50003 9.75C7.84313 9.75 6.5 8.4069 6.5 6.75C6.5 5.0931 7.84313 3.75 9.50003 3.75C11.1568 3.75 12.5 5.0931 12.5 6.75Z" stroke="#001ADC" stroke-width="1.5" stroke-linecap="round" stroke-linejoin="round"/>
</svg>
