<svg width="17" height="19" viewBox="0 0 17 19" fill="none" xmlns="http://www.w3.org/2000/svg">
    <path d="M10.625 3.12502L1.125 3.125M10.625 3.12502C10.625 4.50573 11.7443 5.625 13.125 5.625C14.5057 5.625 15.625 4.50571 15.625 3.125C15.625 1.74429 14.5057 0.625 13.125 0.625C11.7443 0.625 10.625 1.7443 10.625 3.12502ZM15.125 9.125H5.62501M5.62501 9.125C5.62501 10.5057 4.50571 11.625 3.125 11.625C1.74429 11.625 0.625 10.5057 0.625 9.125C0.625 7.7443 1.74429 6.625 3.125 6.625C4.50571 6.625 5.62501 7.7443 5.62501 9.125ZM10.625 15.125H1.125M10.625 15.125C10.625 16.5057 11.7443 17.625 13.125 17.625C14.5057 17.625 15.625 16.5057 15.625 15.125C15.625 13.7443 14.5057 12.625 13.125 12.625C11.7443 12.625 10.625 13.7443 10.625 15.125Z" stroke="#001ADC" stroke-width="1.25" stroke-linecap="round"/>
</svg>
