<svg width="43" height="43" viewBox="0 0 43 43" fill="none" xmlns="http://www.w3.org/2000/svg">
    <path d="M34.0413 18.3909C34.0413 23.4904 27.73 31.9356 24.0618 36.4135C22.7196 38.0518 20.2797 38.0518 18.9376 36.4135C15.2694 31.9356 8.95801 23.4904 8.95801 18.3909C8.95801 11.2024 14.5731 5.375 21.4997 5.375C28.4263 5.375 34.0413 11.2024 34.0413 18.3909Z" fill="#EFF1FB" stroke="#001ADC" stroke-width="2" stroke-linecap="round"/>
    <path d="M26.1595 17.9162C26.1595 20.4889 24.0738 22.5746 21.5011 22.5746C18.9285 22.5746 16.8428 20.4889 16.8428 17.9162C16.8428 15.3434 18.9285 13.2578 21.5011 13.2578C24.0738 13.2578 26.1595 15.3434 26.1595 17.9162Z" stroke="#001ADC" stroke-width="2" stroke-linecap="round"/>
</svg>