<svg width="16" height="20" viewBox="0 0 16 20" fill="none" xmlns="http://www.w3.org/2000/svg">
    <path d="M14.625 7.8897C14.625 10.7359 11.1024 15.4495 9.055 17.9488C8.3059 18.8632 6.9441 18.8632 6.195 17.9488C4.14761 15.4495 0.625 10.7359 0.625 7.8897C0.625 3.87752 3.75901 0.625 7.625 0.625C11.491 0.625 14.625 3.87752 14.625 7.8897Z" stroke="#001ADC" stroke-width="1.25" stroke-linecap="round"/>
    <path d="M10.2254 7.62349C10.2254 9.05939 9.0613 10.2235 7.6254 10.2235C6.1895 10.2235 5.02539 9.05939 5.02539 7.62349C5.02539 6.1875 6.1895 5.02344 7.6254 5.02344C9.0613 5.02344 10.2254 6.1875 10.2254 7.62349Z" stroke="#001ADC" stroke-width="1.25" stroke-linecap="round"/>
</svg>
