<svg width="20" height="20" viewBox="0 0 20 20" fill="none" xmlns="http://www.w3.org/2000/svg">
    <path d="M17.3918 4.29321C17.1956 3.9754 16.8734 3.74266 16.4959 3.64775C16.1175 3.55283 15.7153 3.60275 15.3767 3.78626C14.814 4.09068 14.1356 4.09033 13.5733 3.78535L12.9905 3.46933C12.463 3.18326 12.1345 2.63133 12.1345 2.03125C12.1345 1.26625 11.476 0.625 10.6617 0.625H8.5882C7.7739 0.625 7.11537 1.26625 7.11537 2.03125C7.11537 2.63137 6.78693 3.18336 6.25949 3.46964L5.67745 3.78557C5.11508 4.09081 4.43652 4.09107 3.87392 3.78626C3.53532 3.60275 3.13228 3.55282 2.75398 3.64775C2.37641 3.74267 2.0543 3.9754 1.85801 4.29321L0.822719 5.9779C0.6272 6.29571 0.573999 6.67399 0.675139 7.02836C0.776269 7.38345 1.02348 7.6858 1.36209 7.8693C1.91609 8.17 2.26116 8.7498 2.26135 9.3801L2.26149 9.8699C2.26168 10.5002 1.91679 11.08 1.36284 11.3807C1.02423 11.5649 0.776259 11.8666 0.675139 12.2209C0.574009 12.576 0.62719 12.9543 0.822719 13.2721L1.85951 14.9568C2.05502 15.2746 2.37715 15.5073 2.75473 15.6023C3.13305 15.6972 3.53532 15.6473 3.87467 15.4637C4.43735 15.1593 5.1157 15.1597 5.67806 15.4647L6.25871 15.7796C6.78659 16.0659 7.11536 16.6182 7.11536 17.2188C7.11536 17.9838 7.7738 18.625 8.5882 18.625H10.6611C11.4761 18.625 12.1339 17.9838 12.1339 17.2188C12.1343 16.6182 12.4634 16.066 12.9913 15.7797L13.5726 15.4646C14.135 15.1596 14.8134 15.1593 15.3761 15.4637C15.7154 15.6472 16.1177 15.6972 16.4953 15.6023C16.8736 15.5073 17.1957 15.2746 17.3912 14.9568L18.4273 13.2721C18.6228 12.9543 18.676 12.576 18.5749 12.2216C18.4737 11.8666 18.2265 11.5642 17.8879 11.3807C17.3339 11.08 16.989 10.5002 16.989 9.8699V9.3801C16.989 8.7498 17.3339 8.17 17.8879 7.8693C18.2265 7.6851 18.4737 7.38343 18.5749 7.02905C18.676 6.67396 18.6228 6.29569 18.4273 5.97788L17.3918 4.29321Z" stroke="#001ADC" stroke-width="1.25" stroke-linecap="round"/>
    <path d="M12.625 9.625C12.625 11.2819 11.2819 12.625 9.625 12.625C7.9681 12.625 6.625 11.2819 6.625 9.625C6.625 7.9681 7.9681 6.625 9.625 6.625C11.2819 6.625 12.625 7.9681 12.625 9.625Z" stroke="#001ADC" stroke-width="1.25" stroke-linecap="round"/>
</svg>
