<svg width="19" height="19" viewBox="0 0 19 19" fill="none" xmlns="http://www.w3.org/2000/svg">
    <path d="M6.31098 7.7873L11.9343 4.95312M11.7957 13.625L6.22365 10.625M17.625 3.625C17.625 5.28185 16.2819 6.625 14.625 6.625C12.9681 6.625 11.625 5.28185 11.625 3.625C11.625 1.96815 12.9681 0.625 14.625 0.625C16.2819 0.625 17.625 1.96815 17.625 3.625ZM6.625 9.125C6.625 10.7819 5.28185 12.125 3.625 12.125C1.96815 12.125 0.625 10.7819 0.625 9.125C0.625 7.4681 1.96815 6.125 3.625 6.125C5.28185 6.125 6.625 7.4681 6.625 9.125ZM17.625 14.625C17.625 16.2819 16.2819 17.625 14.625 17.625C12.9681 17.625 11.625 16.2819 11.625 14.625C11.625 12.9681 12.9681 11.625 14.625 11.625C16.2819 11.625 17.625 12.9681 17.625 14.625Z" stroke="#001ADC" stroke-width="1.25" stroke-linecap="round"/>
</svg>
