<svg width="21" height="21" viewBox="0 0 21 21" fill="none" xmlns="http://www.w3.org/2000/svg">
    <path d="M19.6432 9.30462C20.4918 8.68755 20.0553 7.34508 19.0061 7.34508H14.8844C13.9388 7.34508 13.1025 6.7319 12.818 5.83013L11.4547 1.50747C11.1362 0.49751 9.70692 0.49751 9.38831 1.50747L8.02496 5.83013C7.74055 6.7319 6.90419 7.34508 5.95864 7.34508H1.83688C0.787637 7.34508 0.351151 8.68755 1.19978 9.30462L4.87072 11.9738C5.66406 12.5506 5.97089 13.5886 5.61877 14.504L4.02626 18.6444C3.63882 19.6518 4.80174 20.5442 5.67458 19.9094L9.14716 17.3839C9.9069 16.8313 10.9362 16.8313 11.6959 17.3839L15.1684 19.9094C16.0413 20.5442 17.2042 19.6518 16.8167 18.6444L15.2242 14.504C14.8721 13.5886 15.1789 12.5506 15.9723 11.9738L19.6432 9.30462Z" stroke="#001ADC" stroke-width="1.5" stroke-linecap="round" stroke-linejoin="round"/>
</svg>
