<svg width="18" height="23" viewBox="0 0 18 23" fill="none" xmlns="http://www.w3.org/2000/svg">
    <path d="M15.375 6.375H15.9167C16.515 6.375 17 5.87132 17 5.25V4.6875C17 4.06618 16.515 3.5625 15.9167 3.5625H12.6667M15.375 6.375V19.875C15.375 21.1177 14.405 22.125 13.2083 22.125H4.54167C3.34505 22.125 2.375 21.1177 2.375 19.875V6.375M15.375 6.375H2.375M12.6667 3.5625V3C12.6667 1.75736 11.6967 0.75 10.5 0.75H7.25C6.05338 0.75 5.08333 1.75736 5.08333 3V3.5625M12.6667 3.5625H5.08333M2.375 6.375H1.83333C1.23503 6.375 0.75 5.87132 0.75 5.25V4.6875C0.75 4.06618 1.23503 3.5625 1.83333 3.5625H5.08333M6.70833 10.3125V18.1875M11.0417 10.3125V18.1875" stroke="#FF6438" stroke-width="1.5" stroke-linecap="round" stroke-linejoin="round"/>
</svg>
